<?xml version="1.0" encoding="UTF-8"?> <svg xmlns="http://www.w3.org/2000/svg" width="57" height="60" viewBox="0 0 57 60" fill="none"><path d="M6.2526 42.0158H8.88826C9.09498 42.0158 9.25002 41.8608 9.25002 41.6541V38.9667C9.25002 38.76 9.09498 38.605 8.88826 38.605H6.2526C6.04588 38.605 5.89084 38.76 5.89084 38.9667V41.6541C5.83916 41.8608 6.04588 42.0158 6.2526 42.0158Z" fill="#294051"></path><path d="M13.1782 42.0158H15.8138C16.0205 42.0158 16.1756 41.8608 16.1756 41.6541V38.9667C16.1756 38.76 16.0205 38.605 15.8138 38.605H13.1782C12.9714 38.605 12.8164 38.76 12.8164 38.9667V41.6541C12.8164 41.8608 12.9714 42.0158 13.1782 42.0158Z" fill="#294051"></path><path d="M20.102 42.0158H22.7377C22.9444 42.0158 23.0994 41.8608 23.0994 41.6541V38.9667C23.0994 38.76 22.9444 38.605 22.7377 38.605H20.102C19.8953 38.605 19.7402 38.76 19.7402 38.9667V41.6541C19.7402 41.8608 19.8953 42.0158 20.102 42.0158Z" fill="#294051"></path><path d="M6.2526 24.8063H8.88826C9.09498 24.8063 9.25002 24.6512 9.25002 24.4445V21.7055C9.25002 21.4988 9.09498 21.3438 8.88826 21.3438H6.2526C6.04588 21.3438 5.89084 21.4988 5.89084 21.7055V24.3928C5.83916 24.6512 6.04588 24.8063 6.2526 24.8063Z" fill="#294051"></path><path d="M13.1782 24.8063H15.8138C16.0205 24.8063 16.1756 24.6512 16.1756 24.4445V21.7055C16.1756 21.4988 16.0205 21.3438 15.8138 21.3438H13.1782C12.9714 21.3438 12.8164 21.4988 12.8164 21.7055V24.3928C12.8164 24.6512 12.9714 24.8063 13.1782 24.8063Z" fill="#294051"></path><path d="M20.102 24.8063H22.7377C22.9444 24.8063 23.0994 24.6512 23.0994 24.4445V21.7055C23.0994 21.4988 22.9444 21.3438 22.7377 21.3438H20.102C19.8953 21.3438 19.7402 21.4988 19.7402 21.7055V24.3928C19.7402 24.6512 19.8953 24.8063 20.102 24.8063Z" fill="#294051"></path><path d="M6.2526 7.59681H8.88826C9.09498 7.59681 9.25002 7.44177 9.25002 7.23505V4.49603C9.25002 4.28932 9.09498 4.13428 8.88826 4.13428H6.2526C6.04588 4.13428 5.89084 4.28932 5.89084 4.49603V7.18337C5.83916 7.39009 6.04588 7.59681 6.2526 7.59681Z" fill="#294051"></path><path d="M13.1782 7.59681H15.8138C16.0205 7.59681 16.1756 7.44177 16.1756 7.23505V4.49603C16.1756 4.28932 16.0205 4.13428 15.8138 4.13428H13.1782C12.9714 4.13428 12.8164 4.28932 12.8164 4.49603V7.18337C12.8164 7.39009 12.9714 7.59681 13.1782 7.59681Z" fill="#294051"></path><path d="M20.102 7.59681H22.7377C22.9444 7.59681 23.0994 7.44177 23.0994 7.23505V4.49603C23.0994 4.28932 22.9444 4.13428 22.7377 4.13428H20.102C19.8953 4.13428 19.7402 4.28932 19.7402 4.49603V7.18337C19.7402 7.39009 19.8953 7.59681 20.102 7.59681Z" fill="#294051"></path><path d="M24.1344 59.9483V56.5374H6.87339V55.142H24.0827V51.6795H27.5452V46.2015H0.465116C0.206718 46.2015 0 45.9948 0 45.7364V34.9353C0 34.6769 0.206718 34.4702 0.465116 34.4702H56.0724C56.3307 34.4702 56.5375 34.6769 56.5375 34.9353V45.7364C56.5375 45.9948 56.3307 46.2015 56.0724 46.2015H28.9406V51.6795H32.4031V55.142H49.6124V56.5374H32.4031V59.9999H24.1344V59.9483ZM25.478 58.5529H31.0078V53.0232H25.478V58.5529ZM1.39535 44.8061H55.1421V35.8139H1.39535V44.8061Z" fill="#006DF0"></path><path d="M0.465116 28.9403C0.206718 28.9403 0 28.7335 0 28.4751V17.6741C0 17.4157 0.206718 17.209 0.465116 17.209H56.0724C56.3307 17.209 56.5375 17.4157 56.5375 17.6741V28.4751C56.5375 28.7335 56.3307 28.9403 56.0724 28.9403H0.465116ZM1.39535 27.5966H55.1421V18.6043H1.39535V27.5966Z" fill="#006DF0"></path><path d="M0.465116 11.7313C0.206718 11.7313 0 11.5245 0 11.2661V0.465116C0 0.206718 0.206718 0 0.465116 0H56.0724C56.3307 0 56.5375 0.206718 56.5375 0.465116V11.2661C56.5375 11.5245 56.3307 11.7313 56.0724 11.7313H0.465116ZM1.39535 10.3359H55.1421V1.39535H1.39535V10.3359Z" fill="#006DF0"></path></svg> 