<?xml version="1.0" encoding="UTF-8"?> <svg xmlns="http://www.w3.org/2000/svg" width="57" height="60" viewBox="0 0 57 60" fill="none"><g clip-path="url(#clip0)"><path d="M44.3529 40.4118C51.2941 40.4118 56.8823 35.1765 56.8823 28.6471C56.7647 23.1177 52.9412 18.4118 47.5882 17.1765C47.2941 10.8824 41.8235 5.76472 35.0588 5.76472C34 5.76472 32.9412 5.88237 31.9412 6.17649C27.5294 -0.294101 18.7647 -1.94116 12.3529 2.41178C9.64706 4.23531 7.70588 6.94119 6.76471 10.0588C2.23529 11.7647 -0.0588236 16.8235 1.64706 21.353C1.76471 21.6471 1.88235 21.9412 2 22.1765C0.705882 24.0588 0 26.2941 0 28.5294C0 35.0588 5.58823 40.2941 12.5294 40.2941H27.6471V46.4706C24.4706 46.8235 22 49.353 21.5882 52.5294H3.41176V54.1177H21.5882C22.1765 57.8824 25.7059 60.4706 29.4706 59.9412C32.4706 59.4706 34.8235 57.1177 35.2941 54.1177H53.7059V52.5294H35.2941C34.9412 49.353 32.4118 46.8824 29.2353 46.4706V40.4118H44.3529ZM33.7647 53.2941C33.7647 56.2353 31.3529 58.6471 28.4118 58.6471C25.4706 58.6471 23.0588 56.2353 23.0588 53.2941C23.0588 50.353 25.4706 47.9412 28.4118 47.9412C31.3529 48 33.7647 50.353 33.7647 53.2941ZM1.58824 28.5294C1.58824 26.4118 2.29412 24.353 3.58824 22.6471L3.88235 22.2353L3.64706 21.7647C1.70588 18.353 2.94118 13.9412 6.35294 12C6.76471 11.7647 7.23529 11.5883 7.70588 11.4118L8.11765 11.2353V10.8235C9.88235 4.11766 16.7059 0.117664 23.3529 1.88237C26.4706 2.7059 29.1765 4.7059 30.8824 7.47061L31.1765 8.00002L31.7059 7.82355C32.7647 7.52943 33.8235 7.35296 34.8824 7.35296C41 7.29413 45.8824 11.8824 45.8824 17.5294V18.4118L46.5294 18.5883C51.5294 19.5294 55.1176 23.7647 55.2353 28.5294C55.3529 33.4118 50.3529 38.8235 44.3529 38.8235H12.5294C6.52941 38.8235 1.58824 34.1765 1.58824 28.5294Z" fill="#006DF0"></path><path d="M35.2945 52.5295C35.1181 49.3531 32.471 46.8825 29.2945 46.4707H27.5886C24.471 46.8825 21.8239 49.3531 21.5886 52.5295C21.5886 52.9413 21.5298 53.706 21.5886 54.1178C21.8828 57.9413 25.7063 60.4707 29.471 59.9413C32.471 59.4707 35.0004 57.1766 35.2945 54.1178C35.2945 53.706 35.2945 52.9413 35.2945 52.5295ZM28.4122 58.6472C25.471 58.6472 23.0592 56.2354 23.0592 53.2942C23.0592 50.3531 25.471 47.9413 28.4122 47.9413C29.8828 47.9413 31.2357 48.5295 32.1769 49.5295C33.1181 50.4707 33.7651 51.8236 33.7651 53.2942C33.7651 56.2354 31.3533 58.6472 28.4122 58.6472Z" fill="#294051"></path></g><defs><clipPath id="clip0"><rect width="56.8823" height="60" fill="white"></rect></clipPath></defs></svg> 