<?xml version="1.0" encoding="UTF-8"?> <svg xmlns="http://www.w3.org/2000/svg" width="66" height="60" viewBox="0 0 66 60" fill="none"><g clip-path="url(#clip0)"><path d="M32.6841 52.5261C32.5262 52.5261 32.3683 52.4734 32.2104 52.3682L32.1577 52.3156C28.5262 49.7366 24.842 47.105 21.5788 44.3156C20.4209 43.3156 19.5788 42.5261 18.8946 41.684C17.9472 40.5787 17.263 39.4734 16.7893 38.4208C15.7367 35.7366 15.8946 32.0524 15.9999 29.3682V29.2103C16.0525 28.2629 16.0525 27.3682 16.1051 26.4208C16.1577 25.684 16.1577 24.9471 16.2104 24.1577C16.3683 20.2103 16.5262 16.3156 16.5788 12.3156C16.5788 11.9998 16.7893 11.684 17.1051 11.5787H17.1577L32.4209 6.68398C32.5262 6.63135 32.5788 6.63135 32.6314 6.63135C32.7367 6.63135 32.7893 6.63135 32.8946 6.68398L48.1051 11.5261C48.4735 11.6313 48.6841 11.9471 48.6841 12.3156C48.7367 15.8419 48.8946 19.4735 48.9998 22.9471L49.0525 24.105C49.1051 25.7366 49.2104 27.3682 49.263 29.105V29.3156C49.3683 31.9998 49.5262 35.684 48.4735 38.3682C48.0525 39.4735 47.3683 40.5261 46.3683 41.6313C45.4735 42.6313 44.5262 43.5261 43.6841 44.2629C40.5262 46.9998 37.0525 49.5261 33.1051 52.2629H33.0525L32.9999 52.3156C32.9999 52.4734 32.842 52.5261 32.6841 52.5261ZM18.2104 12.9998V13.3682C18.1577 16.6313 17.9999 19.8945 17.8946 23.0524L17.842 24.3156C17.7893 25.7892 17.7367 27.2629 17.6841 28.684V29.3156V29.4735C17.5788 32.0524 17.4735 35.5261 18.3683 37.8945C18.7367 38.7892 19.3156 39.7366 20.1577 40.7366C20.9999 41.684 21.8946 42.5261 22.6841 43.2103C25.6841 45.7892 29.1051 48.3156 32.4209 50.6313L32.7367 50.8419L33.0525 50.6313C36.4735 48.2103 39.842 45.7892 42.7893 43.2103C43.5788 42.5261 44.4735 41.684 45.3156 40.7366C46.1577 39.7892 46.7367 38.8419 47.1051 37.8945C48.0525 35.5261 47.8946 32.0524 47.7893 29.4735V29.2629C47.7367 28.5261 47.7367 27.7892 47.6841 27.0524C47.6314 26.1577 47.6314 25.2103 47.5788 24.3156L47.5262 23.0524C47.4209 19.8945 47.263 16.6313 47.2104 13.4208V13.0524L32.7367 8.42082L18.2104 12.9998Z" fill="#006DF0"></path><path d="M32.6841 60C32.5262 60 32.3683 59.9474 32.2104 59.8421C9.47356 43.5789 9.47356 43.5789 10.4209 24.7368V24.3684C10.6315 20 10.8946 14.5789 10.8946 7.52632C10.8946 7.1579 11.1578 6.84211 11.5262 6.73684H11.5788L32.4736 0.0526316C32.5262 0 32.5788 0 32.6841 0C32.7893 0 32.842 0 32.9472 0.0526316L33.6315 0.263158L53.9472 6.73684C54.263 6.84211 54.5262 7.1579 54.5262 7.47368C54.5262 14.5263 54.7893 19.9474 54.9999 24.3158V24.6842C55.9472 43.5789 55.9472 43.5789 33.1578 59.8421C32.9999 59.9474 32.842 60 32.6841 60ZM12.5262 8.05263V8.42105C12.5262 15.1053 12.263 20.4211 12.0525 24.7368C11.2104 42.1053 11.1578 42.7895 32.4209 58L32.7367 58.2105L33.0525 58C54.263 42.7895 54.2104 42.1053 53.3683 24.7895C53.1578 20.4737 52.8946 15.1053 52.8946 8.42105V8.05263L32.6841 1.63158L12.5262 8.05263Z" fill="#006DF0"></path><path d="M29.4732 38.4737C29.2626 38.4737 29.0521 38.3684 28.8942 38.2105L21.4732 30.7895C21.1574 30.4737 21.1574 29.9474 21.4732 29.6316C21.6311 29.4737 21.8416 29.3684 22.0521 29.3684C22.2626 29.3684 22.4732 29.4737 22.6311 29.6316L29.5258 36.5263L42.8942 23.1579C43.0521 23.0526 43.21 23 43.3679 23C43.5784 23 43.789 23.1053 43.9469 23.2632C44.1047 23.4211 44.21 23.6316 44.21 23.8421C44.21 24.0526 44.1047 24.2632 43.9469 24.4211L30.0521 38.2632C29.8942 38.4211 29.6837 38.4737 29.4732 38.4737Z" fill="#294051"></path><path d="M54.3684 36.2102C53.9474 36.2102 53.5789 35.8418 53.5789 35.4207C53.5789 34.9997 53.9474 34.6312 54.3684 34.6312H63.7895V16.2102H54.0526C53.6316 16.2102 53.2632 15.8418 53.2632 15.4207C53.2632 14.9997 53.6316 14.6312 54.0526 14.6312H64.5789C65 14.6312 65.3684 14.9997 65.3684 15.4207V35.4733C65.3684 35.8944 65 36.2628 64.5789 36.2628H54.3684V36.2102ZM0.789474 36.2102C0.368421 36.2102 0 35.8418 0 35.4207V15.3681C0 14.947 0.368421 14.5786 0.789474 14.5786H11.3158C11.7368 14.5786 12.1053 14.947 12.1053 15.3681C12.1053 15.7891 11.7368 16.1576 11.3158 16.1576H1.63158V34.5786H11.0526C11.4737 34.5786 11.8421 34.947 11.8421 35.3681C11.8421 35.7891 11.4737 36.1576 11.0526 36.1576H0.789474V36.2102Z" fill="#006DF0"></path></g><defs><clipPath id="clip0"><rect width="65.3684" height="60" fill="white"></rect></clipPath></defs></svg> 