<?xml version="1.0" encoding="UTF-8"?> <svg xmlns="http://www.w3.org/2000/svg" width="80" height="60" viewBox="0 0 80 60" fill="none"><g clip-path="url(#clip0)"><path d="M48.9604 48.7734C48.9604 48.3368 49.3346 47.9626 49.7712 47.9626H65.4884C73.3471 47.9626 77.6506 42.1622 78.2743 36.736C79.1475 31.2474 76.5903 24.6985 68.9188 22.578L68.4198 22.3909L68.3574 21.8919C67.6714 17.4012 64.74 13.659 60.5612 12.0374C59.0019 11.4137 57.3803 11.1019 55.7587 11.1019C53.0144 11.1019 50.3949 11.9751 48.2119 13.659L47.3387 14.2827L47.0269 13.2848C44.4697 5.86279 38.4198 1.43451 30.7483 1.43451C29.2514 1.43451 27.6922 1.43451 26.0705 1.8711C18.4614 3.67983 11.4136 10.3534 12.9728 21.2058L13.0352 22.079L12.0996 22.2661C3.74206 23.8254 1.24726 30.6237 1.68385 36.0499C2.12044 41.9751 6.29923 47.9626 14.4697 47.9626H30.9978C31.4344 47.9626 31.8086 48.3368 31.8086 48.7734C31.8086 49.21 31.4344 49.5842 30.9978 49.5842H14.4697C5.36368 49.5842 0.623555 42.7235 0.0622244 36.2994C-0.311996 30.3742 2.68177 23.3888 10.2909 21.2682L11.2888 21.0187L11.2265 20.0208C10.6028 9.10603 18.3367 2.30769 25.6963 0.623701C27.3179 0.18711 28.9396 0 30.6236 0C38.0456 0 44.2826 3.99168 47.4635 10.6653L48.0248 11.8503L49.2098 11.2266C51.1433 10.1663 53.451 9.66736 55.6963 9.66736C57.5674 9.66736 59.3762 10.0416 61.1849 10.6653C65.3637 12.2869 68.5446 15.9667 69.7296 20.5821L69.9167 21.2682L70.5404 21.4553C78.2743 23.9501 80.7691 31.185 79.8335 36.7983C79.0851 42.973 74.2826 49.5842 65.5508 49.5842H49.7712C49.3346 49.5842 48.9604 49.21 48.9604 48.7734Z" fill="#006DF0"></path><path d="M31.1852 56.1955C31.0604 56.0708 30.998 55.946 30.998 55.8213C30.998 55.6966 31.0604 55.5718 31.1852 55.4471C31.3099 55.3223 31.4346 55.26 31.5594 55.26C31.6841 55.26 31.8089 55.3223 31.9336 55.4471L34.4908 58.0043V38.0458C34.4908 37.734 34.7403 37.5469 34.9897 37.5469C35.3016 37.5469 35.4887 37.7964 35.4887 38.0458V58.0043L38.0459 55.4471C38.1706 55.3223 38.2953 55.26 38.4201 55.26C38.5448 55.26 38.6696 55.3223 38.7943 55.4471C38.919 55.5718 38.9814 55.6966 38.9814 55.8213C38.9814 55.946 38.919 56.0708 38.7943 56.1955L34.9897 60.0001L31.1852 56.1955Z" fill="#294051"></path><path d="M44.5944 59.4386V39.4802L42.0372 42.0374C41.9125 42.1621 41.7877 42.2245 41.663 42.2245C41.5383 42.2245 41.4135 42.1621 41.2888 42.0374C41.1017 41.8503 41.1017 41.5384 41.2888 41.2889L45.0933 37.4844L48.8355 41.2266C48.9603 41.4761 48.9603 41.7879 48.8355 42.0374C48.7108 42.0998 48.5861 42.1621 48.5237 42.1621C48.4613 42.1621 48.2742 42.0998 48.1495 41.975L45.5923 39.4178V59.4386C45.5923 59.7505 45.3428 59.9376 45.0933 59.9376C44.7815 60 44.5944 59.7505 44.5944 59.4386Z" fill="#294051"></path></g><defs><clipPath id="clip0"><rect width="79.9584" height="60" fill="white"></rect></clipPath></defs></svg> 