<?xml version="1.0" encoding="UTF-8"?> <svg xmlns="http://www.w3.org/2000/svg" width="80" height="60" viewBox="0 0 80 60" fill="none"><g clip-path="url(#clip0)"><path d="M55.9741 48.8399C55.6289 48.2646 56.0316 47.4592 56.7219 47.4592H65.0633C72.7718 47.4592 77.0287 41.7066 77.6615 36.4142C78.5244 31.0067 76.0508 24.5638 68.4573 22.4928L67.9396 22.3202L67.8245 21.8025C67.1342 17.373 64.2579 13.6913 60.116 12.0805C58.5628 11.5053 56.952 11.1601 55.3988 11.1601C52.6951 11.1601 50.1639 12.023 47.9779 13.6337L47.0575 14.3241L46.7123 13.1735C44.1812 5.86769 38.1984 1.49569 30.6625 1.49569C29.1668 1.49569 27.6136 1.49569 26.0604 1.9559C18.5244 3.73921 11.5637 10.3547 13.1169 21.0546L13.232 22.0326L12.1965 22.2627C3.91273 23.6433 1.43909 30.4314 1.84178 35.7239C2.30199 41.5916 6.38636 47.4592 14.4401 47.4592H22.6088C23.069 47.4592 23.4717 47.8044 23.4717 48.2646C23.5292 48.7824 23.1265 49.2426 22.6088 49.2426H14.4401C5.35088 49.2426 0.576196 42.3969 0.0584584 35.954C-0.344226 30.0288 2.70467 23.0681 10.2982 20.9971L11.2186 20.767L11.161 19.8466C10.5858 9.03164 18.2368 2.24353 25.6577 0.517737C27.0383 0.172579 28.5915 0 30.1447 0C37.6807 0 44.0661 3.96932 47.2301 10.5273L47.7478 11.6203L48.7833 11.0451C50.7392 10.0096 52.9827 9.49185 55.2838 9.49185C57.1246 9.49185 58.9655 9.83701 60.7488 10.5273C64.8907 12.1381 68.0546 15.8197 69.2627 20.4219L69.4353 21.0546L70.0105 21.2272C77.7191 23.7584 80.1927 30.8917 79.2723 36.5292C78.5244 42.6846 73.6922 49.3001 65.0633 49.3001H56.7219C56.3768 49.2426 56.0891 49.1275 55.9741 48.8399Z" fill="#006DF0"></path><path d="M54.0746 53.2121H51.9461V47.9772C51.9461 47.5745 51.601 47.2293 51.1983 47.2293H40.4984V41.4767H42.3967C42.7994 41.4767 43.1446 41.1315 43.1446 40.7288V35.4939C43.1446 35.0913 42.7994 34.7461 42.3967 34.7461H37.1618C36.7592 34.7461 36.414 35.0913 36.414 35.4939V40.7288C36.414 41.1315 36.7592 41.4767 37.1618 41.4767H39.0602V47.2868H28.0152C27.6125 47.2868 27.2673 47.632 27.2673 48.0347V53.2696H25.3689C24.9663 53.2696 24.6211 53.6147 24.6211 54.0174V59.2523C24.6211 59.655 24.9663 60.0002 25.3689 60.0002H30.6614C31.064 60.0002 31.4092 59.655 31.4092 59.2523V54.0174C31.4092 53.6147 31.064 53.2696 30.6614 53.2696H28.763V48.7825H38.9452V53.2696H37.0468C36.6441 53.2696 36.2989 53.6147 36.2989 54.0174V59.2523C36.2989 59.655 36.6441 60.0002 37.0468 60.0002H42.2817C42.6844 60.0002 43.0295 59.655 43.0295 59.2523V54.0174C43.0295 53.6147 42.6844 53.2696 42.2817 53.2696H40.3833V48.7825H50.3354V53.2696H48.7246C48.322 53.2696 47.9768 53.6147 47.9768 54.0174V59.2523C47.9768 59.655 48.322 60.0002 48.7246 60.0002H54.0746C54.4773 60.0002 54.8224 59.655 54.8224 59.2523V54.0174C54.88 53.5572 54.5348 53.2121 54.0746 53.2121ZM26.1743 58.5045V54.7653H29.9135V58.5045H26.1743ZM37.8522 58.5045V54.7653H41.5914V58.5045H37.8522ZM41.6489 36.1843V39.9235H37.9097V36.1843H41.6489ZM49.5875 58.5045V54.7653H53.3268V58.5045H49.5875Z" fill="#294051"></path></g><defs><clipPath id="clip0"><rect width="79.5014" height="60" fill="white"></rect></clipPath></defs></svg> 