<?xml version="1.0" encoding="UTF-8"?> <svg xmlns="http://www.w3.org/2000/svg" width="83" height="60" viewBox="0 0 83 60" fill="none"><g clip-path="url(#clip0)"><path d="M53.2077 50.5859C52.8502 49.9901 53.2673 49.1559 53.9823 49.1559H67.3884C75.3725 49.1559 79.7817 43.1976 80.4371 37.716C81.3308 32.1152 78.7688 25.4419 70.9038 23.2969L70.3676 23.1182L70.2484 22.5819C69.5334 17.994 66.5543 14.1807 62.2643 12.5124C60.6555 11.9166 58.9872 11.5591 57.3785 11.5591C54.5781 11.5591 51.9564 12.4528 49.6923 14.1212L48.739 14.8361L48.3815 13.6445C45.7598 6.07746 39.5632 1.54916 31.7578 1.54916C30.2087 1.54916 28.5999 1.54916 26.9912 2.02582C19.1858 3.87289 11.9763 10.7249 13.585 21.8073L13.7042 22.8203L12.6317 23.0586C4.05177 24.4886 1.4897 31.5194 1.90678 37.001C2.38344 43.0784 6.61383 49.1559 14.9554 49.1559H28.302C28.7787 49.1559 29.1958 49.5134 29.1958 49.9901C29.2553 50.5263 28.8383 51.003 28.302 51.003H14.9554C5.54134 51.003 0.595957 43.9126 0.0597104 37.2393C-0.35737 31.1023 2.80052 23.8927 10.6655 21.7478L11.6188 21.5094L11.5592 20.5561C10.9634 9.35452 18.8879 2.32373 26.5741 0.536246C28.0041 0.178749 29.6128 0 31.2216 0C39.0269 0 45.6406 4.11122 48.9177 10.9037L49.454 12.0358L50.5264 11.4399C52.5523 10.3674 54.876 9.83118 57.2593 9.83118C59.166 9.83118 61.0726 10.1887 62.9197 10.9037C67.2097 12.572 70.4867 16.3853 71.738 21.1519L71.9167 21.8073L72.5125 21.9861C80.4967 24.6077 83.0587 31.996 82.1054 37.8352C81.3308 44.2105 76.3259 51.0626 67.3884 51.0626H54.0418C53.6843 51.003 53.3864 50.8838 53.2077 50.5859Z" fill="#006DF0"></path><path d="M47.3078 43.3763H46.9503V40.6355C46.9503 37.5372 44.3882 34.9751 41.2899 34.9751H40.992C37.8937 34.9751 35.3316 37.5372 35.3316 40.6355V43.3763H34.9741C33.6633 43.3763 32.6504 44.4488 32.6504 45.7596V57.6762C32.6504 58.987 33.7229 59.9999 34.9741 59.9999H47.3078C48.6186 59.9999 49.6315 58.9274 49.6315 57.6762V45.7596C49.6911 44.4488 48.6186 43.3763 47.3078 43.3763ZM36.2849 40.6355C36.2849 38.0138 38.4299 35.8688 41.0516 35.8688H41.3495C43.9711 35.8688 46.1161 38.0138 46.1161 40.6355V43.3763H36.2849V40.6355ZM47.3078 59.1062H35.0337C34.1995 59.1062 33.5441 58.4508 33.5441 57.6166V55.2929H36.1658V54.3991H33.5441V48.6196H36.1658V47.7258H33.5441V45.6404C33.5441 44.8063 34.1995 44.1509 35.0337 44.1509H35.3912H47.0099H47.3674C48.2015 44.1509 48.8569 44.8063 48.8569 45.6404V47.7258H46.2353V48.6196H48.8569V54.3991H46.2353V55.2929H48.8569V57.6166C48.7974 58.4508 48.1419 59.1062 47.3078 59.1062Z" fill="#294051"></path><path d="M43.9113 50.0494C43.9113 48.5598 42.6601 47.3086 41.1705 47.3086C39.6809 47.3086 38.4297 48.5598 38.4297 50.0494C38.4297 50.8836 38.8468 51.6581 39.5022 52.0752L38.5489 56.0673H43.7326L42.8984 52.1944C43.5538 51.6581 43.9113 50.8836 43.9113 50.0494ZM42.1238 51.6581L41.8855 51.8369L42.6005 55.2331H39.6213L40.5151 51.5986L40.1576 51.4794C39.6213 51.2411 39.3234 50.7048 39.3234 50.0494C39.3234 49.0365 40.1576 48.2023 41.1705 48.2023C42.1834 48.2023 43.0176 49.0365 43.0176 50.0494C43.0176 50.7048 42.7197 51.3006 42.1238 51.6581Z" fill="#294051"></path></g><defs><clipPath id="clip0"><rect width="82.3436" height="60" fill="white"></rect></clipPath></defs></svg> 